<svg xmlns="http://www.w3.org/2000/svg" viewBox="0 0 168 176"><path fill="#f4e7cb" fill-rule="evenodd" d="M83.88 11.75L18.50 36.02L16.63 38.25L16.28 42.38L16.28 112.75L16.83 118.50L76.40 161.75L81.38 163.14L90.49 162.63L109.50 149.30L150.63 119.92L151.73 118.00L151.97 113.25L152.04 65.63L151.25 64.32L121.50 77.53L108.13 82.60L99.25 84.72L92.50 84.88L87.25 83.91L80.50 81.38L65.99 73.25L60.50 72.03L50.63 72.95L39.38 78.14L35.92 80.63L35.18 83.25L35.09 96.25L36.25 97.97L39.17 97.63L47.14 93.25L53.19 91.38L64.13 91.26L69.25 92.81L82.50 99.74L90.25 102.18L96.13 102.72L102.38 102.18L110.38 99.91L127.63 92.45L130.11 90.75L130.03 89.25L122.69 87.75L122.74 86.63L137.98 80.25L141.69 79.75L142.14 106.13L141.46 114.38L85.63 154.89L82.75 154.63L27.29 114.63L26.59 63.38L26.83 44.50L27.63 43.00L84.38 22.27L141.13 43.18L142.42 44.50L141.35 46.38L136.62 49.75L132.75 50.51L91.38 35.61L86.51 33.25L83.38 33.10L37.00 50.14L35.75 51.38L35.26 53.38L35.18 66.75L36.38 68.33L39.25 67.74L47.50 63.25L53.13 61.69L64.38 61.38L70.49 63.13L86.75 70.97L95.50 72.80L102.50 72.46L115.63 68.69L144.38 55.96L151.50 51.84L151.91 39.25L150.75 35.92L121.38 25.57L86.76 12.00L83.88 11.75ZM130.38 101.36L109.63 111.49L97.00 114.35L88.63 113.97L79.75 111.28L65.50 103.23L60.38 101.95L51.38 102.30L42.88 105.38L38.13 107.66L37.30 108.75L38.46 110.63L43.57 114.38L78.50 139.54L84.25 142.58L95.50 135.71L130.75 110.89L131.65 109.13L131.67 102.63L131.38 101.60L130.38 101.36Z"></path></svg>